<svg width="55" height="55" viewBox="0 0 55 55" fill="none" xmlns="http://www.w3.org/2000/svg">
<path d="M50.3125 11.25H9.6875C7.09863 11.25 5 13.3486 5 15.9375V44.0625C5 46.6514 7.09863 48.75 9.6875 48.75H50.3125C52.9014 48.75 55 46.6514 55 44.0625V15.9375C55 13.3486 52.9014 11.25 50.3125 11.25ZM50.3125 15.9375V19.9224C48.1229 21.7055 44.632 24.4781 37.1692 30.3218C35.5246 31.6154 32.2668 34.7233 30 34.6871C27.7336 34.7237 24.4747 31.6149 22.8308 30.3218C15.3691 24.479 11.8774 21.7058 9.6875 19.9224V15.9375H50.3125ZM9.6875 44.0625V25.9373C11.9252 27.7196 15.0985 30.2207 19.9354 34.0082C22.0698 35.6884 25.8078 39.3975 30 39.3749C34.1716 39.3975 37.8622 35.7422 40.0638 34.009C44.9005 30.2216 48.0747 27.7198 50.3125 25.9374V44.0625H9.6875Z" fill="#13219A"/>
</svg>
