<svg width="50" height="50" viewBox="0 0 50 50" fill="none" xmlns="http://www.w3.org/2000/svg">
<path d="M45.3125 6H4.6875C2.09863 6 0 8.09863 0 10.6875V38.8125C0 41.4014 2.09863 43.5 4.6875 43.5H45.3125C47.9014 43.5 50 41.4014 50 38.8125V10.6875C50 8.09863 47.9014 6 45.3125 6ZM45.3125 10.6875V14.6724C43.1229 16.4555 39.632 19.2281 32.1692 25.0718C30.5246 26.3654 27.2668 29.4733 25 29.4371C22.7336 29.4737 19.4747 26.3649 17.8308 25.0718C10.3691 19.229 6.87744 16.4558 4.6875 14.6724V10.6875H45.3125ZM4.6875 38.8125V20.6873C6.9252 22.4696 10.0985 24.9707 14.9354 28.7582C17.0698 30.4384 20.8078 34.1475 25 34.1249C29.1716 34.1475 32.8622 30.4922 35.0638 28.759C39.9005 24.9716 43.0747 22.4698 45.3125 20.6874V38.8125H4.6875Z" fill="#1900B2"/>
</svg>
