<svg width="55" height="55" viewBox="0 0 55 55" fill="none" xmlns="http://www.w3.org/2000/svg">
<path d="M30.0056 17.1835C22.9113 17.1835 17.1891 22.9058 17.1891 30C17.1891 37.0943 22.9113 42.8165 30.0056 42.8165C37.0998 42.8165 42.8221 37.0943 42.8221 30C42.8221 22.9058 37.0998 17.1835 30.0056 17.1835ZM30.0056 38.3324C25.4211 38.3324 21.6732 34.5957 21.6732 30C21.6732 25.4044 25.4099 21.6676 30.0056 21.6676C34.6012 21.6676 38.338 25.4044 38.338 30C38.338 34.5957 34.5901 38.3324 30.0056 38.3324V38.3324ZM46.3358 16.6593C46.3358 18.3213 44.9972 19.6487 43.3464 19.6487C41.6843 19.6487 40.3569 18.3101 40.3569 16.6593C40.3569 15.0084 41.6955 13.6699 43.3464 13.6699C44.9972 13.6699 46.3358 15.0084 46.3358 16.6593ZM54.8243 19.6933C54.6347 15.6888 53.72 12.1417 50.7864 9.21922C47.8639 6.29675 44.3168 5.38208 40.3123 5.1813C36.1852 4.94705 23.8148 4.94705 19.6877 5.1813C15.6944 5.37092 12.1472 6.28559 9.21361 9.20807C6.27998 12.1305 5.37646 15.6777 5.17568 19.6821C4.94144 23.8093 4.94144 36.1796 5.17568 40.3068C5.36531 44.3112 6.27998 47.8584 9.21361 50.7809C12.1472 53.7033 15.6832 54.618 19.6877 54.8188C23.8148 55.053 36.1852 55.053 40.3123 54.8188C44.3168 54.6292 47.8639 53.7145 50.7864 50.7809C53.7089 47.8584 54.6235 44.3112 54.8243 40.3068C55.0586 36.1796 55.0586 23.8205 54.8243 19.6933V19.6933ZM49.4925 44.7351C48.6224 46.9214 46.9381 48.6057 44.7407 49.4869C41.4501 50.792 33.6419 50.4908 30.0056 50.4908C26.3692 50.4908 18.5499 50.7809 15.2705 49.4869C13.0842 48.6169 11.3999 46.9326 10.5187 44.7351C9.21361 41.4445 9.51478 33.6364 9.51478 30C9.51478 26.3637 9.22476 18.5444 10.5187 15.265C11.3887 13.0787 13.0731 11.3943 15.2705 10.5131C18.5611 9.20807 26.3692 9.50924 30.0056 9.50924C33.6419 9.50924 41.4612 9.21922 44.7407 10.5131C46.9269 11.3832 48.6113 13.0675 49.4925 15.265C50.7975 18.5555 50.4964 26.3637 50.4964 30C50.4964 33.6364 50.7975 41.4557 49.4925 44.7351Z" fill="#13219A"/>
</svg>
