<svg width="50" height="50" viewBox="0 0 50 50" fill="none" xmlns="http://www.w3.org/2000/svg">
<path d="M25.0056 12.1835C17.9113 12.1835 12.1891 17.9058 12.1891 25C12.1891 32.0943 17.9113 37.8165 25.0056 37.8165C32.0998 37.8165 37.8221 32.0943 37.8221 25C37.8221 17.9058 32.0998 12.1835 25.0056 12.1835ZM25.0056 33.3324C20.4211 33.3324 16.6732 29.5957 16.6732 25C16.6732 20.4044 20.4099 16.6676 25.0056 16.6676C29.6012 16.6676 33.338 20.4044 33.338 25C33.338 29.5957 29.5901 33.3324 25.0056 33.3324V33.3324ZM41.3358 11.6593C41.3358 13.3213 39.9972 14.6487 38.3464 14.6487C36.6843 14.6487 35.3569 13.3101 35.3569 11.6593C35.3569 10.0084 36.6955 8.66987 38.3464 8.66987C39.9972 8.66987 41.3358 10.0084 41.3358 11.6593ZM49.8243 14.6933C49.6347 10.6888 48.72 7.1417 45.7864 4.21922C42.8639 1.29675 39.3168 0.382079 35.3123 0.181298C31.1852 -0.0529458 18.8148 -0.0529458 14.6877 0.181298C10.6944 0.370925 7.14724 1.28559 4.21361 4.20807C1.27998 7.13055 0.376464 10.6777 0.175683 14.6821C-0.0585611 18.8093 -0.0585611 31.1796 0.175683 35.3068C0.36531 39.3112 1.27998 42.8584 4.21361 45.7809C7.14724 48.7033 10.6832 49.618 14.6877 49.8188C18.8148 50.053 31.1852 50.053 35.3123 49.8188C39.3168 49.6292 42.8639 48.7145 45.7864 45.7809C48.7089 42.8584 49.6235 39.3112 49.8243 35.3068C50.0586 31.1796 50.0586 18.8205 49.8243 14.6933V14.6933ZM44.4925 39.7351C43.6224 41.9214 41.9381 43.6057 39.7407 44.4869C36.4501 45.792 28.6419 45.4908 25.0056 45.4908C21.3692 45.4908 13.5499 45.7809 10.2705 44.4869C8.08422 43.6169 6.39989 41.9326 5.51868 39.7351C4.21361 36.4445 4.51478 28.6364 4.51478 25C4.51478 21.3637 4.22476 13.5444 5.51868 10.265C6.38873 8.07868 8.07306 6.39435 10.2705 5.51314C13.5611 4.20807 21.3692 4.50924 25.0056 4.50924C28.6419 4.50924 36.4612 4.21922 39.7407 5.51314C41.9269 6.38319 43.6113 8.06752 44.4925 10.265C45.7975 13.5555 45.4964 21.3637 45.4964 25C45.4964 28.6364 45.7975 36.4557 44.4925 39.7351Z" fill="#1900B2"/>
</svg>
