<svg width="20" height="20" viewBox="0 0 20 20" fill="none" xmlns="http://www.w3.org/2000/svg">
<path d="M16.25 20H2.5C1.83696 20 1.20107 19.7366 0.732233 19.2678C0.263392 18.7989 0 18.163 0 17.5V3.75C0 3.08696 0.263392 2.45107 0.732233 1.98223C1.20107 1.51339 1.83696 1.25 2.5 1.25H7.5V3.75H2.5V17.5H16.25V12.5H18.75V17.5C18.75 18.163 18.4866 18.7989 18.0178 19.2678C17.5489 19.7366 16.913 20 16.25 20ZM9.625 12.1337L7.8625 10.3663L15.7288 2.5H11.25V0H20V8.75H17.5V4.26875L9.625 12.1337V12.1337Z" fill="#000000"/>
</svg>
